<?xml version="1.0" encoding="utf-8"?><svg viewBox="0 0 127 127" xmlns="http://www.w3.org/2000/svg" xmlns:xlink="http://www.w3.org/1999/xlink"><style>:root>svg{display:none}:root>svg:target{display:block}</style><svg viewBox="0 0 22 9" id="icon--arrow-black" xmlns="http://www.w3.org/2000/svg"><style>.ashp0{fill:#436372}</style><g id="aFeatures 2"><g id="aItem 1"><path id="aShape 1" class="ashp0" d="M.3 5.47H.29h16.95l-.1 2.86c-.05.05-.08.13-.08.2 0 .08.03.15.08.21l.18.17c.05.06.12.09.2.09.08 0 .15-.03.2-.09l4.2-4.21c.05-.05.08-.13.08-.2 0-.08-.03-.15-.08-.21L17.72.08a.28.28 0 00-.2-.08.28.28 0 00-.2.08l-.18.17c-.05.06-.08.13-.08.21 0 .07.03.14.08.2l.12 2.86H.29c-.16 0-.29.14-.29.3v1.37c0 .16.14.28.3.28z"/></g></g></svg><svg viewBox="0 0 22 9" id="icon--arrow-white" xmlns="http://www.w3.org/2000/svg"><style>.bshp0{fill:#fff}</style><g id="bBanner"><g id="bSlider"><g id="bSlider text"><path id="bShape 1" class="bshp0" d="M.3 5.47H.29h16.95l-.1 2.86c-.05.05-.08.13-.08.2 0 .08.03.15.08.21l.18.17c.05.06.12.09.2.09.08 0 .15-.03.2-.09l4.2-4.21c.05-.05.08-.13.08-.2 0-.08-.03-.15-.08-.21L17.72.08a.28.28 0 00-.2-.08.28.28 0 00-.2.08l-.18.17c-.05.06-.08.13-.08.21 0 .07.03.14.08.2l.12 2.86H.29c-.16 0-.29.14-.29.3v1.37c0 .16.14.28.3.28z"/></g></g></g></svg><svg viewBox="0 0 19 17" id="icon--basket" xmlns="http://www.w3.org/2000/svg"><style>.cshp0{fill:#243f4d}</style><g id="cBanner"><g id="cHeader"><g id="cGroup 2"><path id="cShape 16" fill-rule="evenodd" class="cshp0" d="M5.53 16.98a2.078 2.078 0 01-1.92-2.87 2.07 2.07 0 011.92-1.28c.55 0 1.07.21 1.46.6.4.4.61.92.61 1.47 0 .84-.5 1.59-1.27 1.92-.26.11-.53.16-.8.16zm0-2.97a.894.894 0 00-.63 1.52.894.894 0 001.52-.63c0-.24-.1-.46-.26-.63a.92.92 0 00-.63-.26zm8.39 2.97c-.54 0-1.07-.21-1.46-.61-.6-.59-.78-1.48-.46-2.26a2.08 2.08 0 011.92-1.28c.54-.04 1.08.22 1.47.6.39.4.6.92.6 1.47.01.84-.49 1.59-1.27 1.92-.26.11-.53.16-.8.16zm0-2.97c-.33.04-.68.22-.82.55-.14.34-.06.72.19.97.26.26.64.33.97.19.34-.14.55-.46.55-.82 0-.24-.09-.46-.26-.63a.92.92 0 00-.63-.26zm-11.27.17c-.09 0-.17-.02-.25-.06a.584.584 0 01-.29-.78c.58-1.24 1.63-1.98 3.05-2.16L4.11 5.79c-.06-.32.14-.63.47-.69.32-.07.63.15.69.47l1.09 5.57h9.43l1.8-6.77H4.29C2.16 4.37.32 2.79.01.68-.04.36.18.05.5.01c.32-.06.63.17.68.5a3.16 3.16 0 003.13 2.68h14.05c.19 0 .36.08.47.23.12.15.15.34.11.51l-2.13 7.96c-.07.26-.3.44-.57.44H5.88h-.02c-1.33 0-2.2.49-2.68 1.51-.1.21-.31.34-.53.34z"/></g></g></g></svg><svg viewBox="0 0 22 20" id="icon--basket2" xmlns="http://www.w3.org/2000/svg"><style>.dshp0{fill:#fff}</style><g id="dProducts"><g id="dItems"><g id="dItem 2"><path id="dForma 1" class="dshp0" d="M.81 1.63h2.34l3.32 12.04c.1.35.42.59.79.59h10.21c.33 0 .61-.19.75-.48l3.71-8.56c.11-.26.09-.55-.06-.78a.819.819 0 00-.68-.37H9.9c-.45 0-.81.37-.81.82 0 .45.36.82.81.82h10.04l-3.01 6.92H7.87L4.54.6a.802.802 0 00-.78-.6H.81A.82.82 0 000 .81c0 .45.37.82.81.82zM6.48 20c1.02 0 1.85-.83 1.85-1.85S7.5 16.3 6.48 16.3a1.85 1.85 0 000 3.7zm11.53 0h.14c.49-.04.94-.26 1.26-.64.33-.37.48-.84.45-1.34a1.855 1.855 0 00-1.97-1.72c-1.02.07-1.78.97-1.71 1.97.07.97.87 1.73 1.83 1.73z"/></g></g></g></svg><svg viewBox="0 0 54 53" id="icon--credit-card" xmlns="http://www.w3.org/2000/svg"><style>.eshp0,.eshp1{fill:#a3bbc8}.eshp1{opacity:.341}</style><g id="eFeatures"><g id="e100% Payment secure."><path id="ecredit-card" class="eshp0" d="M46.43 31.32a.83.83 0 00-.84.83v8.27c0 1.19-.97 2.16-2.16 2.16H4.09c-1.19 0-2.16-.97-2.16-2.16V28.5h27.29c.46 0 .84-.38.84-.84 0-.46-.38-.84-.84-.84H1.93v-5.47h9.87c.46 0 .83-.37.83-.83 0-.46-.37-.84-.83-.84H1.93V16.8c0-1.2.97-2.17 2.16-2.17h25.13c.46 0 .84-.37.84-.84 0-.46-.38-.83-.84-.83H4.09c-2.11 0-3.83 1.72-3.83 3.84v23.62c0 2.11 1.72 3.83 3.83 3.83h39.34c2.11 0 3.83-1.72 3.83-3.83v-8.27c0-.46-.37-.83-.83-.83zM29.22 19.68H15c-.46 0-.83.38-.83.84 0 .46.37.83.83.83h14.22c.46 0 .84-.37.84-.83 0-.46-.38-.84-.84-.84zm-9.24 11.56H5.71c-.46 0-.83.37-.83.83 0 .47.37.84.83.84h14.27c.46 0 .84-.37.84-.84 0-.46-.38-.83-.84-.83zm-6.08 3.99H5.71c-.46 0-.83.37-.83.83 0 .47.37.84.83.84h8.19c.46 0 .83-.37.83-.84 0-.46-.37-.83-.83-.83zm34.63-13.61c.47 0 .84-.37.84-.84v-4.77c0-1.46-1.03-2.68-2.39-2.97V7.02c0-3.64-2.96-6.6-6.6-6.6-3.64 0-6.59 2.96-6.59 6.6v6.02c-1.37.3-2.4 1.52-2.4 2.97v10.75c0 1.68 1.37 3.04 3.04 3.04h11.9c1.68 0 3.04-1.36 3.04-3.04v-3.19a.83.83 0 00-.84-.83c-.46 0-.83.37-.83.83v3.19c0 .75-.62 1.37-1.37 1.37h-11.9c-.75 0-1.37-.62-1.37-1.37V16.01c0-.75.62-1.37 1.37-1.37h11.9c.75 0 1.37.62 1.37 1.37v4.77c0 .47.37.84.83.84zm-3.23-8.65h-9.84V7.02c0-2.72 2.21-4.93 4.92-4.93 2.72 0 4.92 2.21 4.92 4.93v5.95zm-4.92 4.32c-1.7 0-3.09 1.39-3.09 3.09 0 1.42.96 2.62 2.26 2.98v2.04c0 .47.37.84.83.84.46 0 .84-.37.84-.84v-2.04c1.3-.36 2.25-1.56 2.25-2.98 0-1.7-1.38-3.09-3.09-3.09zm0 4.52a1.425 1.425 0 010-2.85 1.425 1.425 0 010 2.85z"/><path id="eEllipse 1" class="eshp1" d="M44 33.06c5.42 0 9.81 4.39 9.81 9.8 0 5.41-4.39 9.8-9.81 9.8-5.42 0-9.81-4.39-9.81-9.8 0-5.41 4.39-9.8 9.81-9.8z"/></g></g></svg><svg viewBox="0 0 55 37" id="icon--delivery" xmlns="http://www.w3.org/2000/svg"><style>.fshp0,.fshp1{fill:#a3bbc8}.fshp1{opacity:.341}</style><g id="fFeatures"><g id="fDelivery."><path id="fdelivery-truck" class="fshp0" d="M9.82 5.33H3.69a.79.79 0 000 1.58h6.13a.79.79 0 000-1.58zm.52 11.01h-5.6a.785.785 0 100 1.57h5.6c.43 0 .79-.35.79-.78 0-.44-.36-.79-.79-.79zm-2.09-4.72H1.6c-.44 0-.79.35-.79.79 0 .43.35.79.79.79h6.65c.43 0 .78-.36.78-.79 0-.44-.35-.79-.78-.79zm0 11.01H7.6c-.43 0-.78.35-.78.79 0 .43.35.78.78.78h.65c.43 0 .78-.35.78-.78 0-.44-.35-.79-.78-.79zm-3.27 0H1.6a.785.785 0 100 1.57h3.38a.785.785 0 100-1.57zM41.84 2.77h-6.65V1.35a.79.79 0 00-.79-.78H22.23a.785.785 0 100 1.57h11.38v17.22c0 .43.36.79.79.79.43 0 .79-.36.79-.79V4.34h6.65c3.59 0 6.51 2.92 6.51 6.52v13.29h-2a4.972 4.972 0 00-4.91-4.19c-2.47 0-4.53 1.82-4.91 4.19h-1.34v-1.12c0-.44-.36-.79-.79-.79-.43 0-.79.35-.79.79v1.12h-8.33c-.38-2.37-2.44-4.19-4.91-4.19-2.48 0-4.54 1.82-4.91 4.19h-1.64V2.14h5.26a.785.785 0 100-1.57h-6.04c-.44 0-.79.35-.79.78v23.59c0 .43.35.79.79.79h2.42a4.972 4.972 0 004.91 4.19c2.47 0 4.53-1.82 4.91-4.19h11.25c.38 2.37 2.44 4.19 4.91 4.19 2.48 0 4.54-1.82 4.91-4.19h2.79c.43 0 .78-.36.78-.79V10.86c0-4.46-3.62-8.09-8.08-8.09zM20.37 28.35c-1.88 0-3.41-1.53-3.41-3.41 0-1.88 1.53-3.41 3.41-3.41 1.87 0 3.4 1.53 3.4 3.41 0 1.88-1.53 3.41-3.4 3.41zm21.07 0c-1.87 0-3.4-1.53-3.4-3.41 0-1.88 1.53-3.41 3.4-3.41 1.88 0 3.41 1.53 3.41 3.41 0 1.88-1.53 3.41-3.41 3.41zm.4-22.44h-4.3a.79.79 0 00-.78.79v7.39c0 .43.35.79.78.79H46c.43 0 .78-.36.78-.79v-3.23c0-2.73-2.21-4.95-4.94-4.95zm3.37 7.39h-6.88V7.49h3.51c1.86 0 3.37 1.51 3.37 3.37v2.44zm-24.84 9.61c-1.12 0-2.03.91-2.03 2.03 0 1.12.91 2.03 2.03 2.03 1.11 0 2.02-.91 2.02-2.03 0-1.12-.91-2.03-2.02-2.03zm0 2.49c-.25 0-.46-.21-.46-.46s.21-.45.46-.45.45.2.45.45-.2.46-.45.46zm21.07-2.49c-1.11 0-2.02.91-2.02 2.03 0 1.12.91 2.03 2.02 2.03 1.12 0 2.03-.91 2.03-2.03 0-1.12-.91-2.03-2.03-2.03zm0 2.49c-.25 0-.45-.21-.45-.46s.2-.45.45-.45.46.2.46.45-.21.46-.46.46zM46 17.03c-.44 0-.79.35-.79.78v1.99a.785.785 0 101.57 0v-1.99c0-.43-.35-.78-.78-.78z"/><path id="fEllipse 1" class="fshp1" d="M44.75 17.41c5.42 0 9.81 4.38 9.81 9.79 0 5.41-4.39 9.8-9.81 9.8-5.42 0-9.81-4.39-9.81-9.8 0-5.41 4.39-9.79 9.81-9.79z"/></g></g></svg><svg viewBox="0 0 18 17" id="icon--like" xmlns="http://www.w3.org/2000/svg"><style>.gshp0{fill:#243f4d}</style><g id="gBanner"><g id="gHeader"><g id="gGroup 2"><path id="gShape 55" class="gshp0" d="M8.91 16.24c-.09 0-.19-.01-.28-.05-.35-.15-8.65-3.75-8.65-10.76C.07 2.78 2.19.72 4.8.72c1.74 0 3.27.92 4.11 2.31A4.809 4.809 0 0113.03.72c2.6 0 4.72 2.06 4.81 4.68 0 7.04-8.29 10.64-8.65 10.79-.09.04-.18.05-.28.05zM4.8 2.11c-1.85 0-3.34 1.47-3.41 3.34 0 5.41 6.13 8.66 7.52 9.34 1.4-.68 7.52-3.93 7.52-9.36-.06-1.85-1.56-3.32-3.4-3.32-1.85 0-3.35 1.47-3.41 3.34-.02.38-.33.67-.71.67a.69.69 0 01-.7-.67C8.14 3.58 6.65 2.11 4.8 2.11z"/></g></g></g></svg><svg viewBox="0 0 22 18" id="icon--like2" xmlns="http://www.w3.org/2000/svg"><style/><path id="hlik" d="M21.99 5.82a6.19 6.19 0 00-1.85-4.1A5.853 5.853 0 0016 0c-2.31 0-3.95 1.78-4.82 2.74-.05.06-.11.12-.16.17-.03-.03-.06-.06-.08-.09C10.13 1.9 8.46 0 6 0 4.45 0 2.98.61 1.86 1.72a6.19 6.19 0 00-1.85 4.1c-.08 1.54.31 2.88 1.27 4.34.86 1.31 3.1 3.37 4.76 4.75C7.75 16.32 9.99 18 11.01 18c1.03 0 3.27-1.68 4.96-3.09 1.65-1.37 3.88-3.43 4.75-4.75.65-.99 1.38-2.37 1.27-4.34zm-2.38 3.61c-.63.96-2.41 2.74-4.43 4.42-2.4 2-3.83 2.79-4.17 2.82-.34-.03-1.77-.83-4.19-2.84-2.03-1.68-3.81-3.45-4.43-4.4-.8-1.21-1.12-2.3-1.06-3.54C1.47 3.37 3.56 1.32 6 1.32c1.86 0 3.21 1.54 3.94 2.37.43.49.66.76 1.06.76.41 0 .67-.29 1.15-.81.79-.87 2.12-2.32 3.85-2.32 2.44 0 4.53 2.05 4.67 4.57.07 1.26-.25 2.31-1.06 3.54z"/></svg><svg viewBox="0 0 20 21" id="icon--points" xmlns="http://www.w3.org/2000/svg"><style>.ishp0{fill:#fff}</style><g id="iBanner"><g id="iHeader"><path id="iEllipse 32" class="ishp0" d="M2.15 4.88A2.145 2.145 0 112.14.59a2.145 2.145 0 01.01 4.29zm0 7.87a2.145 2.145 0 11-.01-4.29 2.145 2.145 0 01.01 4.29zm0 7.87a2.145 2.145 0 11-.01-4.29 2.145 2.145 0 01.01 4.29zm7.86-15.74a2.145 2.145 0 11.01-4.29 2.145 2.145 0 01-.01 4.29zm0 7.87a2.145 2.145 0 11.01-4.29 2.145 2.145 0 01-.01 4.29zm0 7.87a2.145 2.145 0 11.01-4.29 2.145 2.145 0 01-.01 4.29zm7.87-15.74a2.145 2.145 0 11.01-4.29 2.145 2.145 0 01-.01 4.29zm0 7.87a2.145 2.145 0 11.01-4.29 2.145 2.145 0 01-.01 4.29zm0 7.87a2.145 2.145 0 11.01-4.29 2.145 2.145 0 01-.01 4.29z"/></g></g></svg><svg viewBox="0 0 16 16" id="icon--search" xmlns="http://www.w3.org/2000/svg"><style>.jshp0{fill:#243f4d}</style><g id="jBanner"><g id="jHeader"><path id="jicon" class="jshp0" d="M3.7 6.08c.36-.07.68.13.75.48.09.58.35 1.07.78 1.49.42.39.94.68 1.49.78.33.06.55.39.49.74a.64.64 0 01-.72.51c-.81-.16-1.55-.54-2.14-1.13-.58-.58-.97-1.32-1.13-2.13-.07-.36.12-.68.48-.74zM6.98 0c3.47 0 6.28 2.8 6.28 6.25 0 .93-.2 1.81-.57 2.61l2.34 2.03c1.7 1.75.74 3.27.29 3.72-.42.45-1.99 1.41-3.73-.29l-2.06-2.35c-.78.34-1.64.54-2.55.54C3.51 12.51.7 9.71.7 6.25S3.51 0 6.98 0zm5.55 13.51c.29.33 1.12.87 1.88.23.21-.18.63-1.07-.23-1.87l-2.16-1.88c-.39.51-.84.96-1.37 1.34l1.88 2.18zM6.98 11.2c2.74 0 4.97-2.22 4.97-4.95S9.72 1.31 6.98 1.31c-2.74 0-4.97 2.21-4.97 4.94 0 2.73 2.23 4.95 4.97 4.95z"/></g></g></svg><svg viewBox="0 0 20 20" id="icon--search2" xmlns="http://www.w3.org/2000/svg"><style>.kshp0{fill:#fff}</style><g id="kProducts"><g id="kItems"><g id="kItem 2"><path id="kForma 1" class="kshp0" d="M19.45 16.8l-4.59-4.59a8.812 8.812 0 01-2.65 2.65l4.59 4.59c.73.73 1.92.73 2.65 0s.73-1.92 0-2.65zM15 7.5C15 3.36 11.64 0 7.5 0 3.36 0 0 3.36 0 7.5 0 11.64 3.36 15 7.5 15c4.14 0 7.5-3.36 7.5-7.5zm-7.5 5.62c-3.1 0-5.63-2.52-5.63-5.62S4.4 1.87 7.5 1.87s5.62 2.53 5.62 5.63-2.52 5.62-5.62 5.62zM3.12 7.5h1.25c0-1.72 1.41-3.13 3.13-3.13V3.12c-2.41 0-4.38 1.97-4.38 4.38z"/></g></g></g></svg><svg viewBox="0 0 51 54" id="icon--support24" xmlns="http://www.w3.org/2000/svg"><style>.lshp0{opacity:.341}.lshp0,.lshp1{fill:#a3bbc8}</style><g id="lFeatures"><g id="lSupport 24/7."><path id="lEllipse 1" class="lshp0" d="M40.98 33.59c5.41 0 9.8 4.4 9.8 9.82s-4.39 9.81-9.8 9.81c-5.41 0-9.79-4.39-9.79-9.81 0-5.42 4.38-9.82 9.79-9.82z"/><path id="lShape 1" class="lshp1" d="M45.31 11.67a.938.938 0 00-1.29-.3c-.44.27-.57.85-.3 1.29 2.24 3.59 3.42 7.74 3.42 11.99 0 12.51-10.17 22.68-22.68 22.68-4.95 0-9.65-1.57-13.6-4.53a.93.93 0 00-1.31.19.93.93 0 00.19 1.31c4.27 3.21 9.36 4.91 14.72 4.91 13.54 0 24.56-11.02 24.56-24.56 0-4.6-1.28-9.09-3.71-12.98zM22.28 33.61h-7.55l4.74-4.75c2.42-2.41 3.75-5.62 3.75-9.03 0-3.23-2.62-5.85-5.85-5.85-3.22 0-5.84 2.62-5.84 5.85 0 .51.42.93.94.93s.94-.42.94-.93c0-2.19 1.78-3.97 3.96-3.97 2.19 0 3.97 1.78 3.97 3.97 0 2.91-1.13 5.65-3.19 7.71l-6.34 6.34c-.27.27-.35.67-.21 1.03.15.35.49.57.87.57h9.81c.52 0 .94-.42.94-.93 0-.52-.42-.94-.94-.94zm15.04-6.44h-2.6v-1.52c0-.51-.42-.93-.94-.93s-.94.42-.94.93v1.52h-5.28l5.28-8.85v4.21a.939.939 0 101.88 0v-7.61-.01c0-.31-.17-.62-.46-.8a.933.933 0 00-1.28.33L25.1 27.63a.93.93 0 00-.01.94c.17.29.48.48.82.48h6.93v5.5c0 .51.42.93.94.93s.94-.42.94-.93v-5.5h2.6a.939.939 0 100-1.88zm5.33-22.63a.94.94 0 00-.96-.92.93.93 0 00-.91.96l.04 1.75a24.45 24.45 0 00-6.35-4.11A24.351 24.351 0 0024.46.09C10.92.09-.09 11.11-.09 24.65c0 6.65 2.61 12.87 7.36 17.53.18.18.42.27.65.27.25 0 .49-.09.67-.28.37-.37.36-.96-.01-1.33-4.38-4.3-6.8-10.05-6.8-16.19 0-12.51 10.18-22.68 22.68-22.68 5.58 0 10.97 2.08 15.11 5.77l-1.84.04a.94.94 0 00-.92.96c.01.51.43.91.94.91h.02l4.06-.09a.94.94 0 00.92-.96l-.1-4.06z"/></g></g></svg><svg viewBox="0 0 127 127" id="icon--video-all" xmlns="http://www.w3.org/2000/svg"><style>.mshp0{opacity:.4}.mshp0,.mshp1{fill:#a3bbc8}.mshp2{fill:#fff}</style><g id="mvideo"><path id="mEllipse 11" class="mshp0" d="M63.5 0C98.57 0 127 28.43 127 63.5S98.57 127 63.5 127 0 98.57 0 63.5 28.43 0 63.5 0z"/><path id="mEllipse 11" class="mshp1" d="M63 14c27.06 0 49 21.94 49 49s-21.94 49-49 49-49-21.94-49-49 21.94-49 49-49z"/><path id="mForm 24" class="mshp2" d="M73.68 64.74l-16.04 9.8c-.5.3-1.08.46-1.66.46-.48 0-.96-.11-1.4-.32-.97-.47-1.58-1.39-1.58-2.39V52.7c0-1 .61-1.92 1.58-2.39.97-.46 2.15-.41 3.06.15l16.04 9.79c.83.51 1.32 1.35 1.32 2.25 0 .9-.49 1.74-1.32 2.24z"/></g></svg></svg>