<?xml version="1.0" encoding="utf-8"?><svg viewBox="0 0 448 512" xmlns="http://www.w3.org/2000/svg" xmlns:xlink="http://www.w3.org/1999/xlink"><style>:root>svg{display:none}:root>svg:target{display:block}</style><svg viewBox="0 0 22 9" id="icon--arrow" xmlns="http://www.w3.org/2000/svg"><style>.ashp0{fill:#fff}</style><g id="aBanner"><g id="aSlider"><g id="aSlider text"><path id="aShape 1" class="ashp0" d="M.3 5.47H.29h16.95l-.1 2.86c-.05.05-.08.13-.08.2 0 .08.03.15.08.21l.18.17c.05.06.12.09.2.09.08 0 .15-.03.2-.09l4.2-4.21c.05-.05.08-.13.08-.2 0-.08-.03-.15-.08-.21L17.72.08a.28.28 0 00-.2-.08.28.28 0 00-.2.08l-.18.17c-.05.06-.08.13-.08.21 0 .07.03.14.08.2l.12 2.86H.29c-.16 0-.29.14-.29.3v1.37c0 .16.14.28.3.28z"/></g></g></g></svg><svg viewBox="0 0 42 42" id="icon--avards" xmlns="http://www.w3.org/2000/svg"><style>.bshp0{fill:#a3bbc8}</style><g id="bAbout Us"><path id="bShape 1" fill-rule="evenodd" class="bshp0" d="M12.9 32.7c0-1.32.3-2.56.83-3.68L.51 8.58a.92.92 0 01.11-1.14l6.32-6.42c.17-.17.4-.26.63-.26h27.35c.24 0 .46.09.63.26l6.32 6.42c.3.3.35.78.11 1.14L28.76 29.03c.53 1.11.83 2.35.83 3.67 0 4.67-3.74 8.47-8.34 8.47s-8.35-3.8-8.35-8.47zm1.79 0c0 3.67 2.94 6.66 6.56 6.66 3.61 0 6.55-2.99 6.55-6.66 0-3.68-2.94-6.67-6.55-6.67-3.62 0-6.56 2.99-6.56 6.67zm8.55-8.23c1.78.44 3.35 1.47 4.47 2.88L39.58 8.99h-6.34l-10 15.48zm-8.46 2.88a8.281 8.281 0 014.48-2.88L9.25 8.99H2.91l11.87 18.36zm6.45-3.13h.03l9.85-15.23H11.38l9.85 15.23zM3.41 7.17h35.67l-4.53-4.6H7.94l-4.53 4.6zm17.25 28.92v-4.9h-.53c-.49 0-.89-.41-.89-.91s.4-.9.89-.9h1.42c.49 0 .89.4.89.9v5.81c0 .5-.4.91-.89.91s-.89-.41-.89-.91z"/></g></svg><svg viewBox="0 0 19 17" id="icon--basket" xmlns="http://www.w3.org/2000/svg"><style>.cshp0{fill:#243f4d}</style><g id="cBanner"><g id="cHeader"><g id="cGroup 2"><path id="cShape 16" fill-rule="evenodd" class="cshp0" d="M5.53 16.98a2.078 2.078 0 01-1.92-2.87 2.07 2.07 0 011.92-1.28c.55 0 1.07.21 1.46.6.4.4.61.92.61 1.47 0 .84-.5 1.59-1.27 1.92-.26.11-.53.16-.8.16zm0-2.97a.894.894 0 00-.63 1.52.894.894 0 001.52-.63c0-.24-.1-.46-.26-.63a.92.92 0 00-.63-.26zm8.39 2.97c-.54 0-1.07-.21-1.46-.61-.6-.59-.78-1.48-.46-2.26a2.08 2.08 0 011.92-1.28c.54-.04 1.08.22 1.47.6.39.4.6.92.6 1.47.01.84-.49 1.59-1.27 1.92-.26.11-.53.16-.8.16zm0-2.97c-.33.04-.68.22-.82.55-.14.34-.06.72.19.97.26.26.64.33.97.19.34-.14.55-.46.55-.82 0-.24-.09-.46-.26-.63a.92.92 0 00-.63-.26zm-11.27.17c-.09 0-.17-.02-.25-.06a.584.584 0 01-.29-.78c.58-1.24 1.63-1.98 3.05-2.16L4.11 5.79c-.06-.32.14-.63.47-.69.32-.07.63.15.69.47l1.09 5.57h9.43l1.8-6.77H4.29C2.16 4.37.32 2.79.01.68-.04.36.18.05.5.01c.32-.06.63.17.68.5a3.16 3.16 0 003.13 2.68h14.05c.19 0 .36.08.47.23.12.15.15.34.11.51l-2.13 7.96c-.07.26-.3.44-.57.44H5.88h-.02c-1.33 0-2.2.49-2.68 1.51-.1.21-.31.34-.53.34z"/></g></g></g></svg><svg viewBox="0 0 22 20" id="icon--basket2" xmlns="http://www.w3.org/2000/svg"><style>.dshp0{fill:#fff}</style><g id="dProducts"><g id="dItems"><g id="dItem 2"><path id="dForma 1" class="dshp0" d="M.81 1.63h2.34l3.32 12.04c.1.35.42.59.79.59h10.21c.33 0 .61-.19.75-.48l3.71-8.56c.11-.26.09-.55-.06-.78a.819.819 0 00-.68-.37H9.9c-.45 0-.81.37-.81.82 0 .45.36.82.81.82h10.04l-3.01 6.92H7.87L4.54.6a.802.802 0 00-.78-.6H.81A.82.82 0 000 .81c0 .45.37.82.81.82zM6.48 20c1.02 0 1.85-.83 1.85-1.85S7.5 16.3 6.48 16.3a1.85 1.85 0 000 3.7zm11.53 0h.14c.49-.04.94-.26 1.26-.64.33-.37.48-.84.45-1.34a1.855 1.855 0 00-1.97-1.72c-1.02.07-1.78.97-1.71 1.97.07.97.87 1.73 1.83 1.73z"/></g></g></g></svg><svg viewBox="0 0 448 512" id="icon--calendar" xmlns="http://www.w3.org/2000/svg"><path fill="currentColor" d="M148 288h-40c-6.6 0-12-5.4-12-12v-40c0-6.6 5.4-12 12-12h40c6.6 0 12 5.4 12 12v40c0 6.6-5.4 12-12 12zm108-12v-40c0-6.6-5.4-12-12-12h-40c-6.6 0-12 5.4-12 12v40c0 6.6 5.4 12 12 12h40c6.6 0 12-5.4 12-12zm96 0v-40c0-6.6-5.4-12-12-12h-40c-6.6 0-12 5.4-12 12v40c0 6.6 5.4 12 12 12h40c6.6 0 12-5.4 12-12zm-96 96v-40c0-6.6-5.4-12-12-12h-40c-6.6 0-12 5.4-12 12v40c0 6.6 5.4 12 12 12h40c6.6 0 12-5.4 12-12zm-96 0v-40c0-6.6-5.4-12-12-12h-40c-6.6 0-12 5.4-12 12v40c0 6.6 5.4 12 12 12h40c6.6 0 12-5.4 12-12zm192 0v-40c0-6.6-5.4-12-12-12h-40c-6.6 0-12 5.4-12 12v40c0 6.6 5.4 12 12 12h40c6.6 0 12-5.4 12-12zm96-260v352c0 26.5-21.5 48-48 48H48c-26.5 0-48-21.5-48-48V112c0-26.5 21.5-48 48-48h48V12c0-6.6 5.4-12 12-12h40c6.6 0 12 5.4 12 12v52h128V12c0-6.6 5.4-12 12-12h40c6.6 0 12 5.4 12 12v52h48c26.5 0 48 21.5 48 48zm-48 346V160H48v298c0 3.3 2.7 6 6 6h340c3.3 0 6-2.7 6-6z"/></svg><svg viewBox="0 0 73 52" id="icon--car" xmlns="http://www.w3.org/2000/svg"><style>.fshp0{fill:#a3bbc8}.fshp1{fill:#243f4d}</style><g id="fWidgets"><path id="fEllipse 2 copy 3" class="fshp0" d="M55.5 17.62c9.32 0 16.87 7.56 16.87 16.88S64.82 51.37 55.5 51.37 38.62 43.82 38.62 34.5s7.56-16.88 16.88-16.88z"/><path id="fShape 1 copy 3" class="fshp1" d="M59.52 16.96l-1.66-6.55c.46-.1.8-.5.8-.97V8.38c0-2.29-1.89-4.16-4.21-4.16H46.9V2.05C46.9.92 45.97 0 44.83 0H6.35C5.2 0 4.28.92 4.28 2.05V20c0 .55.44.99 1 .99.55 0 1-.44 1-.99V2.05c0-.04.03-.07.07-.07h38.48c.03 0 .06.03.06.07V20c0 .55.45.99 1.01.99.55 0 1-.44 1-.99v-1.12h11.82c1.46 0 2.69.94 3.12 2.24h-3.12a1 1 0 00-1 .99v2.11c0 1.71 1.41 3.11 3.14 3.11H62v4.35h-2.62a6.371 6.371 0 00-6-4.22c-2.78 0-5.14 1.77-6 4.22h-.48v-7.46a1 1 0 00-1-.99c-.56 0-1.01.45-1.01.99v7.46H24.1a6.352 6.352 0 00-6-4.22c-2.77 0-5.13 1.77-5.99 4.22H6.35c-.04 0-.07-.03-.07-.06v-2.18h4.34c.56 0 1-.44 1-.99s-.44-.99-1-.99H1c-.55 0-1 .44-1 .99s.45.99 1 .99h3.28v2.18c0 1.12.92 2.04 2.07 2.04h5.41v.07c0 3.46 2.84 6.27 6.34 6.27s6.35-2.81 6.35-6.27v-.07h22.58v.07c0 3.46 2.85 6.27 6.35 6.27 3.5 0 6.34-2.81 6.34-6.27v-.07H63c.55 0 1-.44 1-.99V22.11c0-2.61-1.95-4.77-4.48-5.15zM46.9 6.2h7.55c1.21 0 2.2.98 2.2 2.18v.07H46.9V6.2zm0 10.7v-6.47h8.9l1.64 6.47H46.9zM18.1 38.02c-2.39 0-4.34-1.93-4.34-4.29 0-2.37 1.95-4.29 4.34-4.29 2.4 0 4.35 1.92 4.35 4.29 0 2.36-1.95 4.29-4.35 4.29zm35.28 0c-2.4 0-4.34-1.93-4.34-4.29 0-2.37 1.94-4.29 4.34-4.29 2.39 0 4.34 1.92 4.34 4.29 0 2.36-1.95 4.29-4.34 4.29zM62 25.35h-1.14c-.63 0-1.14-.51-1.14-1.13V23.1H62v2.25zm-43.9 6.33c-1.14 0-2.07.92-2.07 2.05s.93 2.05 2.07 2.05c1.15 0 2.08-.92 2.08-2.05s-.93-2.05-2.08-2.05zm35.28 0c-1.14 0-2.07.92-2.07 2.05s.93 2.05 2.07 2.05c1.14 0 2.07-.92 2.07-2.05s-.93-2.05-2.07-2.05zm-11.76-4.22H26.66c-.56 0-1.01.44-1.01.99s.45.99 1.01.99h14.96c.55 0 1-.44 1-.99s-.45-.99-1-.99zm-25.65-4.23H3.14a1 1 0 00-1 .99c0 .55.45.99 1 .99h12.83c.55 0 1-.44 1-.99a1 1 0 00-1-.99zM34.85 9.79c-.39-.38-1.03-.38-1.42 0l-8.91 8.81-4.64-4.58c-.39-.39-1.02-.39-1.42 0a.984.984 0 000 1.4l5.35 5.28c.19.19.45.29.71.29.25 0 .51-.1.71-.29l9.62-9.51a.984.984 0 000-1.4z"/></g></svg><svg viewBox="0 0 54 53" id="icon--credit-card" xmlns="http://www.w3.org/2000/svg"><style>.gshp0,.gshp1{fill:#a3bbc8}.gshp1{opacity:.341}</style><g id="gFeatures"><g id="g100% Payment secure."><path id="gcredit-card" class="gshp0" d="M46.43 31.32a.83.83 0 00-.84.83v8.27c0 1.19-.97 2.16-2.16 2.16H4.09c-1.19 0-2.16-.97-2.16-2.16V28.5h27.29c.46 0 .84-.38.84-.84 0-.46-.38-.84-.84-.84H1.93v-5.47h9.87c.46 0 .83-.37.83-.83 0-.46-.37-.84-.83-.84H1.93V16.8c0-1.2.97-2.17 2.16-2.17h25.13c.46 0 .84-.37.84-.84 0-.46-.38-.83-.84-.83H4.09c-2.11 0-3.83 1.72-3.83 3.84v23.62c0 2.11 1.72 3.83 3.83 3.83h39.34c2.11 0 3.83-1.72 3.83-3.83v-8.27c0-.46-.37-.83-.83-.83zM29.22 19.68H15c-.46 0-.83.38-.83.84 0 .46.37.83.83.83h14.22c.46 0 .84-.37.84-.83 0-.46-.38-.84-.84-.84zm-9.24 11.56H5.71c-.46 0-.83.37-.83.83 0 .47.37.84.83.84h14.27c.46 0 .84-.37.84-.84 0-.46-.38-.83-.84-.83zm-6.08 3.99H5.71c-.46 0-.83.37-.83.83 0 .47.37.84.83.84h8.19c.46 0 .83-.37.83-.84 0-.46-.37-.83-.83-.83zm34.63-13.61c.47 0 .84-.37.84-.84v-4.77c0-1.46-1.03-2.68-2.39-2.97V7.02c0-3.64-2.96-6.6-6.6-6.6-3.64 0-6.59 2.96-6.59 6.6v6.02c-1.37.3-2.4 1.52-2.4 2.97v10.75c0 1.68 1.37 3.04 3.04 3.04h11.9c1.68 0 3.04-1.36 3.04-3.04v-3.19a.83.83 0 00-.84-.83c-.46 0-.83.37-.83.83v3.19c0 .75-.62 1.37-1.37 1.37h-11.9c-.75 0-1.37-.62-1.37-1.37V16.01c0-.75.62-1.37 1.37-1.37h11.9c.75 0 1.37.62 1.37 1.37v4.77c0 .47.37.84.83.84zm-3.23-8.65h-9.84V7.02c0-2.72 2.21-4.93 4.92-4.93 2.72 0 4.92 2.21 4.92 4.93v5.95zm-4.92 4.32c-1.7 0-3.09 1.39-3.09 3.09 0 1.42.96 2.62 2.26 2.98v2.04c0 .47.37.84.83.84.46 0 .84-.37.84-.84v-2.04c1.3-.36 2.25-1.56 2.25-2.98 0-1.7-1.38-3.09-3.09-3.09zm0 4.52a1.425 1.425 0 010-2.85 1.425 1.425 0 010 2.85z"/><path id="gEllipse 1" class="gshp1" d="M44 33.06c5.42 0 9.81 4.39 9.81 9.8 0 5.41-4.39 9.8-9.81 9.8-5.42 0-9.81-4.39-9.81-9.8 0-5.41 4.39-9.8 9.81-9.8z"/></g></g></svg><svg viewBox="0 0 55 37" id="icon--delivery" xmlns="http://www.w3.org/2000/svg"><style>.hshp0,.hshp1{fill:#a3bbc8}.hshp1{opacity:.341}</style><g id="hFeatures"><g id="hDelivery."><path id="hdelivery-truck" class="hshp0" d="M9.82 5.33H3.69a.79.79 0 000 1.58h6.13a.79.79 0 000-1.58zm.52 11.01h-5.6a.785.785 0 100 1.57h5.6c.43 0 .79-.35.79-.78 0-.44-.36-.79-.79-.79zm-2.09-4.72H1.6c-.44 0-.79.35-.79.79 0 .43.35.79.79.79h6.65c.43 0 .78-.36.78-.79 0-.44-.35-.79-.78-.79zm0 11.01H7.6c-.43 0-.78.35-.78.79 0 .43.35.78.78.78h.65c.43 0 .78-.35.78-.78 0-.44-.35-.79-.78-.79zm-3.27 0H1.6a.785.785 0 100 1.57h3.38a.785.785 0 100-1.57zM41.84 2.77h-6.65V1.35a.79.79 0 00-.79-.78H22.23a.785.785 0 100 1.57h11.38v17.22c0 .43.36.79.79.79.43 0 .79-.36.79-.79V4.34h6.65c3.59 0 6.51 2.92 6.51 6.52v13.29h-2a4.972 4.972 0 00-4.91-4.19c-2.47 0-4.53 1.82-4.91 4.19h-1.34v-1.12c0-.44-.36-.79-.79-.79-.43 0-.79.35-.79.79v1.12h-8.33c-.38-2.37-2.44-4.19-4.91-4.19-2.48 0-4.54 1.82-4.91 4.19h-1.64V2.14h5.26a.785.785 0 100-1.57h-6.04c-.44 0-.79.35-.79.78v23.59c0 .43.35.79.79.79h2.42a4.972 4.972 0 004.91 4.19c2.47 0 4.53-1.82 4.91-4.19h11.25c.38 2.37 2.44 4.19 4.91 4.19 2.48 0 4.54-1.82 4.91-4.19h2.79c.43 0 .78-.36.78-.79V10.86c0-4.46-3.62-8.09-8.08-8.09zM20.37 28.35c-1.88 0-3.41-1.53-3.41-3.41 0-1.88 1.53-3.41 3.41-3.41 1.87 0 3.4 1.53 3.4 3.41 0 1.88-1.53 3.41-3.4 3.41zm21.07 0c-1.87 0-3.4-1.53-3.4-3.41 0-1.88 1.53-3.41 3.4-3.41 1.88 0 3.41 1.53 3.41 3.41 0 1.88-1.53 3.41-3.41 3.41zm.4-22.44h-4.3a.79.79 0 00-.78.79v7.39c0 .43.35.79.78.79H46c.43 0 .78-.36.78-.79v-3.23c0-2.73-2.21-4.95-4.94-4.95zm3.37 7.39h-6.88V7.49h3.51c1.86 0 3.37 1.51 3.37 3.37v2.44zm-24.84 9.61c-1.12 0-2.03.91-2.03 2.03 0 1.12.91 2.03 2.03 2.03 1.11 0 2.02-.91 2.02-2.03 0-1.12-.91-2.03-2.02-2.03zm0 2.49c-.25 0-.46-.21-.46-.46s.21-.45.46-.45.45.2.45.45-.2.46-.45.46zm21.07-2.49c-1.11 0-2.02.91-2.02 2.03 0 1.12.91 2.03 2.02 2.03 1.12 0 2.03-.91 2.03-2.03 0-1.12-.91-2.03-2.03-2.03zm0 2.49c-.25 0-.45-.21-.45-.46s.2-.45.45-.45.46.2.46.45-.21.46-.46.46zM46 17.03c-.44 0-.79.35-.79.78v1.99a.785.785 0 101.57 0v-1.99c0-.43-.35-.78-.78-.78z"/><path id="hEllipse 1" class="hshp1" d="M44.75 17.41c5.42 0 9.81 4.38 9.81 9.79 0 5.41-4.39 9.8-9.81 9.8-5.42 0-9.81-4.39-9.81-9.8 0-5.41 4.39-9.79 9.81-9.79z"/></g></g></svg><svg viewBox="0 0 23 15" id="icon--google" xmlns="http://www.w3.org/2000/svg"><style>.ishp0{fill:#888}</style><g id="iOur Team"><g id="iItems"><g id="iItem 4"><path id="iUnion 6" class="ishp0" d="M6.75 14.91a6.997 6.997 0 01-3.82-1.36C1.47 12.47.54 11.04.16 9.26.02 8.62-.03 7.98.02 7.33c.1-1.54.64-2.91 1.62-4.1A7.129 7.129 0 015.51.77C5.9.66 6.29.6 6.69.58c.23-.01.46-.02.69-.02 1.21.01 2.35.32 3.4.93.7.4 1.09.81 1.27.93-.72.71-1.41 1.4-2.11 2.09-.52-.45-1.1-.86-2.1-1.02-.21-.03-.41-.04-.61-.04-2.01 0-3.69 1.45-4.14 3.35-.11.43-.14.87-.1 1.3a4.307 4.307 0 002.93 3.74c.41.12.83.19 1.26.19.1 0 .2-.01.3-.01.75-.05 1.46-.25 2.09-.67C10.65 10.61 11 9.47 11 9.18H7.15c0-.09.02-1.89.02-2.76l.01-.12h6.76c.36 2.11.03 4.32-1.28 6.05-.91 1.2-2.11 1.95-3.55 2.33-.64.16-1.29.24-1.94.24-.14 0-.28 0-.42-.01zm13.33-4.05H18.19v-.07l.02-2.43H15.7v-.08l.02-1.82v-.07h2.5l.02-2.43v-.07H20.2v.07l-.02 2.43h2.51v.07l-.01 1.82v.08H20.17l-.02 2.43v.07h-.07z"/></g></g></g></svg><svg viewBox="0 0 18 18" id="icon--instagram" xmlns="http://www.w3.org/2000/svg"><style>.jshp0{fill:#888}</style><g id="jOur Team"><g id="jItems"><g id="jItem 4"><path id="jUnion 5" fill-rule="evenodd" class="jshp0" d="M3.59 17.5C1.64 17 .47 15.72.16 13.75-.07 12.3-.09 5.56.33 4.1.87 2.19 2.15 1.07 4.08.75 4.95.61 6.66.56 8.38.56c1.61 0 3.23.04 4.2.1 1.18.06 2.27.44 3.14 1.28.84.8 1.27 1.8 1.38 2.94.12 1.35.21 7.74-.19 9.24-.53 1.96-1.82 3.12-3.8 3.44-.74.12-2.74.19-4.74.19-2.05 0-4.09-.07-4.78-.25zm.92-15.26c-1.5.18-2.51 1.1-2.75 2.59-.25 1.59-.25 7.5-.06 8.69.19 1.23.89 2.08 2.12 2.43.67.18 2.67.25 4.63.25 1.8 0 3.57-.06 4.24-.13 1.51-.17 2.51-1.1 2.75-2.6.25-1.52.25-7.03.11-8.45-.16-1.51-1.08-2.51-2.58-2.74-.74-.11-2.52-.16-4.3-.16-1.71 0-3.41.04-4.16.12zm-.32 6.92c.02-2.44 2.01-4.42 4.45-4.41a4.37 4.37 0 014.37 4.41 4.452 4.452 0 01-4.45 4.41c-2.43 0-4.39-1.97-4.37-4.41zm1.55-.03a2.834 2.834 0 002.81 2.88h.02c1.57 0 2.85-1.26 2.88-2.82a2.82 2.82 0 00-2.8-2.88h-.03c-1.56 0-2.85 1.25-2.88 2.82zm6.45-4.55c0-.57.46-1.03 1.03-1.03h.01c.57 0 1.03.46 1.02 1.04 0 .56-.47 1.02-1.04 1.02-.57 0-1.03-.46-1.02-1.03z"/></g></g></g></svg><svg viewBox="0 0 18 17" id="icon--like" xmlns="http://www.w3.org/2000/svg"><style>.kshp0{fill:#243f4d}</style><g id="kBanner"><g id="kHeader"><g id="kGroup 2"><path id="kShape 55" class="kshp0" d="M8.91 16.24c-.09 0-.19-.01-.28-.05-.35-.15-8.65-3.75-8.65-10.76C.07 2.78 2.19.72 4.8.72c1.74 0 3.27.92 4.11 2.31A4.809 4.809 0 0113.03.72c2.6 0 4.72 2.06 4.81 4.68 0 7.04-8.29 10.64-8.65 10.79-.09.04-.18.05-.28.05zM4.8 2.11c-1.85 0-3.34 1.47-3.41 3.34 0 5.41 6.13 8.66 7.52 9.34 1.4-.68 7.52-3.93 7.52-9.36-.06-1.85-1.56-3.32-3.4-3.32-1.85 0-3.35 1.47-3.41 3.34-.02.38-.33.67-.71.67a.69.69 0 01-.7-.67C8.14 3.58 6.65 2.11 4.8 2.11z"/></g></g></g></svg><svg viewBox="0 0 22 18" id="icon--like2" xmlns="http://www.w3.org/2000/svg"><style/><path id="llik" d="M21.99 5.82a6.19 6.19 0 00-1.85-4.1A5.853 5.853 0 0016 0c-2.31 0-3.95 1.78-4.82 2.74-.05.06-.11.12-.16.17-.03-.03-.06-.06-.08-.09C10.13 1.9 8.46 0 6 0 4.45 0 2.98.61 1.86 1.72a6.19 6.19 0 00-1.85 4.1c-.08 1.54.31 2.88 1.27 4.34.86 1.31 3.1 3.37 4.76 4.75C7.75 16.32 9.99 18 11.01 18c1.03 0 3.27-1.68 4.96-3.09 1.65-1.37 3.88-3.43 4.75-4.75.65-.99 1.38-2.37 1.27-4.34zm-2.38 3.61c-.63.96-2.41 2.74-4.43 4.42-2.4 2-3.83 2.79-4.17 2.82-.34-.03-1.77-.83-4.19-2.84-2.03-1.68-3.81-3.45-4.43-4.4-.8-1.21-1.12-2.3-1.06-3.54C1.47 3.37 3.56 1.32 6 1.32c1.86 0 3.21 1.54 3.94 2.37.43.49.66.76 1.06.76.41 0 .67-.29 1.15-.81.79-.87 2.12-2.32 3.85-2.32 2.44 0 4.53 2.05 4.67 4.57.07 1.26-.25 2.31-1.06 3.54z"/></svg><svg viewBox="0 0 74 60" id="icon--monitor" xmlns="http://www.w3.org/2000/svg"><style>.mshp0{fill:#a3bbc8}.mshp1{fill:#243f4d}</style><g id="mWidgets"><path id="mEllipse 2 copy 4" class="mshp0" d="M56.5 25.62c9.32 0 16.87 7.56 16.87 16.88S65.82 59.37 56.5 59.37 39.62 51.82 39.62 42.5s7.56-16.88 16.88-16.88z"/><path id="mShape 1 copy 4" class="mshp1" d="M60.64 0H3.36C1.51 0 0 1.51 0 3.36V44.5c0 1.85 1.51 3.36 3.36 3.36h21.7l-.88 7h-3.63c-.6 0-1.08.48-1.08 1.07 0 .59.48 1.07 1.08 1.07h22.9c.6 0 1.08-.48 1.08-1.07 0-.59-.48-1.07-1.08-1.07h-3.63l-.88-7h21.7c1.85 0 3.36-1.51 3.36-3.36V3.36C64 1.51 62.49 0 60.64 0zm-34.3 54.86l.88-7h9.56l.88 7H26.34zM61.85 44.5c0 .67-.54 1.21-1.21 1.21H3.36c-.67 0-1.21-.54-1.21-1.21V3.36c0-.67.54-1.22 1.21-1.22h57.28c.67 0 1.21.55 1.21 1.22V44.5zM50.33 4.57H5.66c-.6 0-1.08.48-1.08 1.07v35.43c0 .59.48 1.07 1.08 1.07h3.43c.6 0 1.08-.48 1.08-1.07 0-.59-.48-1.07-1.08-1.07H6.73V6.71h43.6a1.071 1.071 0 000-2.14zm8.01 0h-3.43c-.59 0-1.08.48-1.08 1.07 0 .59.49 1.07 1.08 1.07h2.36V40h-43.6a1.071 1.071 0 000 2.14h44.67c.6 0 1.08-.48 1.08-1.07V5.64c0-.59-.48-1.07-1.08-1.07zm-6.87 5.72a3.359 3.359 0 00-2.97 4.93l-8.6 9.09c-.43-.2-.91-.31-1.41-.31-.9 0-1.71.35-2.31.92l-7.35-3.88a3.367 3.367 0 00-3.32-3.9 3.37 3.37 0 00-3.37 3.36c0 .52.12 1.01.33 1.45l-8.4 8.14c-.46-.24-.99-.38-1.54-.38a3.37 3.37 0 00-3.37 3.36 3.37 3.37 0 003.37 3.36c1.85 0 3.36-1.51 3.36-3.36 0-.52-.12-1.01-.33-1.45l8.41-8.14a3.318 3.318 0 003.85-.55l7.35 3.88c-.03.18-.04.36-.04.55 0 1.85 1.51 3.35 3.36 3.35 1.86 0 3.37-1.5 3.37-3.35 0-.57-.15-1.11-.4-1.58l8.6-9.09a3.37 3.37 0 004.78-3.05c0-1.85-1.51-3.35-3.37-3.35zm-38.94 24c-.67 0-1.22-.55-1.22-1.22 0-.67.55-1.21 1.22-1.21.67 0 1.21.54 1.21 1.21 0 .67-.54 1.22-1.21 1.22zm12.98-12.58c-.67 0-1.22-.54-1.22-1.21 0-.67.55-1.21 1.22-1.21.67 0 1.22.54 1.22 1.21 0 .67-.55 1.21-1.22 1.21zm12.98 6.86c-.67 0-1.22-.54-1.22-1.21 0-.67.55-1.22 1.22-1.22.67 0 1.22.55 1.22 1.22 0 .67-.55 1.21-1.22 1.21zm12.98-13.71c-.67 0-1.22-.55-1.22-1.22 0-.67.55-1.21 1.22-1.21.67 0 1.22.54 1.22 1.21 0 .67-.55 1.22-1.22 1.22zm0 4.57c-.59 0-1.07.48-1.07 1.07v16c0 .59.48 1.07 1.07 1.07.59 0 1.08-.48 1.08-1.07v-16c0-.59-.48-1.07-1.08-1.07zm-25.96 6.86c-.59 0-1.07.47-1.07 1.07v9.14a1.071 1.071 0 002.14 0v-9.14c0-.6-.48-1.07-1.07-1.07zm12.98 6.85c-.59 0-1.07.48-1.07 1.07v2.29a1.071 1.071 0 002.14 0v-2.29c0-.59-.48-1.07-1.07-1.07z"/></g></svg><svg viewBox="0 0 79 64" id="icon--phone" xmlns="http://www.w3.org/2000/svg"><style>.nshp0{fill:#a3bbc8}.nshp1{fill:#243f4d}</style><g id="nWidgets"><path id="nEllipse 2 copy 2" class="nshp0" d="M61.5 29.62c9.32 0 16.87 7.56 16.87 16.88S70.82 63.37 61.5 63.37 44.62 55.82 44.62 46.5s7.56-16.88 16.88-16.88z"/><path id="nShape 1 copy 2" class="nshp1" d="M57.06 53.46a4.36 4.36 0 00-2.21-3.23l-11.59-6.45a4.614 4.614 0 00-5.46.74l-4.07 4.03c-.83.83-2.17.93-3.1.24a72.784 72.784 0 01-8.17-7.01c-2.61-2.58-4.99-5.29-7.08-8.08-.69-.92-.59-2.24.24-3.07l4.07-4.03a4.484 4.484 0 00.75-5.4L13.92 9.74c-.68-1.21-1.87-2-3.26-2.19-1.46-.2-2.9.29-3.96 1.34l-4.29 4.24c-3.04 3.01-3.2 8.38-.45 15.13 2.62 6.46 7.61 13.53 14.05 19.9 6.44 6.38 13.59 11.32 20.12 13.91 3.23 1.29 6.15 1.93 8.65 1.93 2.78 0 5.04-.79 6.63-2.37l4.29-4.25c1.06-1.05 1.56-2.48 1.36-3.92zm-2.89 2.4l-.75.75-9.88-5.34a1.09 1.09 0 00-1.47.43c-.29.52-.1 1.17.43 1.46l9.32 5.03-1.94 1.92c-2.35 2.32-7.06 2.31-12.94-.03-6.27-2.49-13.15-7.26-19.39-13.44-6.24-6.17-11.06-12.98-13.58-19.18-2.36-5.82-2.37-10.49-.03-12.81l1.94-1.92 1.04 1.89c.2.35.57.56.96.56.17 0 .35-.05.51-.14.53-.28.72-.93.44-1.45l-1.35-2.44.75-.74c.5-.49 1.14-.76 1.8-.76.11 0 .22.01.33.03.72.09 1.32.5 1.67 1.11l6.52 11.47c.52.92.36 2.08-.39 2.83L16.22 27l-5.08-9.22c-.29-.52-.95-.71-1.47-.43-.53.29-.72.94-.44 1.46l5.39 9.77-.53.53c-1.59 1.57-1.78 4.1-.45 5.87 2.15 2.87 4.6 5.67 7.28 8.32 2.69 2.66 5.52 5.08 8.41 7.21 1.8 1.32 4.35 1.13 5.94-.44l.53-.53 2.46 1.33c.17.09.35.13.52.13.39 0 .76-.2.96-.56.28-.52.09-1.17-.44-1.45l-1.9-1.03 1.93-1.92c.76-.74 1.93-.9 2.86-.39l11.59 6.45c.62.35 1.03.95 1.13 1.65.1.77-.17 1.54-.74 2.11zm-2.14-28.37H50.8v-9.24c0-.59-.49-1.07-1.09-1.07-.6 0-1.08.48-1.08 1.07v9.24h-5.67l2.02-9a1.07 1.07 0 00-.82-1.28c-.59-.13-1.17.23-1.3.81l-2.31 10.31c-.07.32.01.65.21.9.21.26.52.41.85.41h7.01v3.5c0 .6.49 1.08 1.09 1.08.6 0 1.09-.48 1.09-1.08v-3.5h1.22c.6 0 1.09-.48 1.09-1.08 0-.59-.49-1.07-1.08-1.07zm-13.89 4.58h-7.99c.47-1.23 1.81-2.01 3.73-3.05 2.38-1.29 5.34-2.88 5.34-6.51 0-2.94-2.56-5.33-5.71-5.33-3.16 0-5.72 2.39-5.72 5.33 0 .59.49 1.07 1.09 1.07.59 0 1.08-.48 1.08-1.07 0-1.76 1.59-3.18 3.55-3.18 1.95 0 3.54 1.42 3.54 3.18 0 2.19-1.59 3.21-4.21 4.62-2.36 1.28-5.05 2.73-5.05 6.01 0 .6.49 1.08 1.09 1.08h9.26c.59 0 1.08-.48 1.08-1.08 0-.59-.49-1.07-1.08-1.07zm22.93 12.62l-2.11.42C64.09 40.17 67 33.42 67 26.27 67 11.79 55.09 0 40.45 0 31.82 0 23.7 4.17 18.73 11.16c-.35.49-.23 1.16.26 1.5.49.34 1.17.22 1.51-.26C25.07 5.98 32.53 2.15 40.45 2.15c13.44 0 24.38 10.82 24.38 24.12 0 6.66-2.75 12.95-7.59 17.5l.48-2.4c.12-.58-.26-1.14-.85-1.26-.59-.12-1.16.26-1.28.84l-1.16 5.73c-.07.35.04.71.3.97.21.2.48.31.77.31.07 0 .14 0 .21-.02l5.79-1.14c.59-.12.97-.69.85-1.27-.12-.58-.69-.96-1.28-.84zM40.45 4.58c-.6 0-1.08.48-1.08 1.07v2.3c0 .59.48 1.07 1.08 1.07.6 0 1.09-.48 1.09-1.07v-2.3c0-.59-.49-1.07-1.09-1.07zM61.28 25.2h-2.31c-.6 0-1.09.48-1.09 1.07 0 .6.49 1.08 1.09 1.08h2.31c.6 0 1.09-.48 1.09-1.08 0-.59-.49-1.07-1.09-1.07zm-36.33-9.02l-2-1.15a1.09 1.09 0 00-1.48.4c-.3.51-.12 1.17.39 1.46l2.01 1.15c.17.1.36.14.54.14.38 0 .74-.19.94-.53.3-.52.12-1.17-.4-1.47zm34.09 19.47l-2.01-1.14c-.52-.3-1.18-.13-1.48.39-.3.51-.12 1.17.4 1.47l2 1.14c.17.1.36.14.54.14.38 0 .74-.19.94-.53.3-.52.13-1.17-.39-1.47zM51.41 7.49c-.52-.3-1.18-.12-1.48.39l-1.16 1.98a1.07 1.07 0 00.94 1.61c.37 0 .74-.19.94-.53l1.16-1.99c.3-.51.12-1.17-.4-1.46zM31.73 41.21a1.09 1.09 0 00-1.48.4l-1.16 1.98c-.3.51-.12 1.17.4 1.47.17.09.36.14.54.14.38 0 .74-.19.94-.54l1.16-1.98c.3-.51.12-1.17-.4-1.47zm27.7-25.78c-.3-.52-.96-.69-1.48-.4l-2 1.15c-.52.3-.7.95-.4 1.47.2.34.57.53.94.53.18 0 .37-.04.54-.14l2.01-1.15c.52-.29.69-.95.39-1.46zM25.35 34.9c-.3-.52-.96-.69-1.48-.39l-2.01 1.14c-.51.3-.69.95-.39 1.47.2.34.56.53.94.53.18 0 .37-.04.54-.14l2-1.14c.52-.3.7-.96.4-1.47zm6.78-25.04l-1.16-1.98c-.3-.51-.96-.69-1.48-.39-.52.29-.7.95-.4 1.46l1.16 1.99c.2.34.57.54.94.54.19 0 .37-.05.54-.15.52-.3.7-.95.4-1.47zm19.68 33.73l-1.16-1.98c-.3-.52-.96-.69-1.48-.4-.52.3-.7.96-.4 1.47l1.16 1.98c.2.35.56.54.94.54.18 0 .37-.05.54-.14.52-.3.7-.96.4-1.47z"/></g></svg><svg viewBox="0 0 20 21" id="icon--points" xmlns="http://www.w3.org/2000/svg"><style>.oshp0{fill:#fff}</style><g id="oBanner"><g id="oHeader"><path id="oEllipse 32" class="oshp0" d="M2.15 4.88A2.145 2.145 0 112.14.59a2.145 2.145 0 01.01 4.29zm0 7.87a2.145 2.145 0 11-.01-4.29 2.145 2.145 0 01.01 4.29zm0 7.87a2.145 2.145 0 11-.01-4.29 2.145 2.145 0 01.01 4.29zm7.86-15.74a2.145 2.145 0 11.01-4.29 2.145 2.145 0 01-.01 4.29zm0 7.87a2.145 2.145 0 11.01-4.29 2.145 2.145 0 01-.01 4.29zm0 7.87a2.145 2.145 0 11.01-4.29 2.145 2.145 0 01-.01 4.29zm7.87-15.74a2.145 2.145 0 11.01-4.29 2.145 2.145 0 01-.01 4.29zm0 7.87a2.145 2.145 0 11.01-4.29 2.145 2.145 0 01-.01 4.29zm0 7.87a2.145 2.145 0 11.01-4.29 2.145 2.145 0 01-.01 4.29z"/></g></g></svg><svg viewBox="0 0 37 38" id="icon--projects" xmlns="http://www.w3.org/2000/svg"><style>.pshp0{fill:#a3bbc8}</style><g id="pAbout Us"><path id="pShape 1" fill-rule="evenodd" class="pshp0" d="M1.98 37.96C.89 37.96 0 37.07 0 35.97V8.69c0-.24.1-.47.27-.64L7.74.51c.17-.18.4-.27.64-.27h19.09c1.09 0 1.97.89 1.97 1.99V5.1c0 .51-.4.91-.9.91s-.9-.4-.9-.91V2.23c0-.09-.08-.17-.17-.17H9.28v5.55c0 1.1-.88 1.99-1.97 1.99h-5.5v26.37c0 .09.07.17.17.17h25.49c.09 0 .17-.08.17-.17v-13.9c0-.51.4-.91.9-.91s.9.4.9.91v13.9c0 1.1-.88 1.99-1.97 1.99H1.98zm1.1-30.18h4.23c.09 0 .17-.07.17-.17V3.35l-4.4 4.43zm3.98 23.71c-.5 0-.9-.41-.9-.91s.4-.91.9-.91H11l1.39-5.07c.04-.15.12-.28.23-.4l.02-.01H7.06c-.5 0-.9-.41-.9-.91s.4-.91.9-.91h7.38l5.43-5.48H7.06c-.5 0-.9-.41-.9-.91s.4-.91.9-.91h14.62l8.43-8.51c1.19-1.2 3.13-1.2 4.32 0l1.06 1.08a3.096 3.096 0 010 4.35L18 29.63c-.11.11-.24.19-.39.24 0 0-5.69 1.59-5.7 1.59-.03.01-.23.03-.23.03H7.06zm5.92-2.22l2.65-.74-1.91-1.93-.74 2.67zm1.56-4.42l2.83 2.85L31.8 13.14l-2.83-2.85-14.43 14.56zm16.84-17L30.25 9l2.83 2.85 1.13-1.15c.49-.49.49-1.29 0-1.78l-1.06-1.07c-.24-.24-.56-.37-.88-.37-.32 0-.64.13-.89.37z"/></g></svg><svg viewBox="0 0 43 40" id="icon--revenue" xmlns="http://www.w3.org/2000/svg"><style>.qshp0{fill:#a3bbc8}</style><g id="qAbout Us"><path id="qShape 1" fill-rule="evenodd" class="qshp0" d="M43.13 15.8c0 3.15-2.3 5.76-5.26 6.15v7.13c0 .78-.39 1.49-1.05 1.89a2.093 2.093 0 01-2.13.02 48.662 48.662 0 00-19.18-6.25l4.15 11.79c.24.66.14 1.4-.25 1.98-.4.58-1.04.93-1.73.93h-4.86c-.88 0-1.68-.57-1.98-1.43L5.99 24.29a3.322 3.322 0 01-1.91-2.67H2.72c-1.49 0-2.71-1.24-2.71-2.77v-6.1c0-1.53 1.22-2.77 2.71-2.77h1.36c.19-1.66 1.56-2.95 3.23-2.95L13.99 7c7.33-.56 14.3-2.71 20.7-6.39.67-.38 1.47-.37 2.13.03.66.39 1.05 1.1 1.05 1.88v7.13c2.96.39 5.26 3 5.26 6.15zM4.05 12.12H2.72c-.35 0-.62.28-.62.63v6.1c0 .35.27.63.62.63h1.33v-7.36zm3.18 10.31h5.75V9.17H7.31c-.65 0-1.17.54-1.17 1.2v10.86c0 .49.28.91.69 1.1.15.06.19.07.4.1zm6 2.14H8.31l4.48 12.71c.01.01.02.02.03.02h4.86c.01 0 .01 0 .02-.01.01-.02.01-.02.01-.03l-4.48-12.69zM35.79 2.52c0-.01 0-.03-.03-.04-.02-.02-.04-.01-.05 0-6.4 3.68-13.35 5.89-20.65 6.57v13.5c7.3.68 14.25 2.89 20.65 6.57.01.01.03.02.05 0 .03-.01.03-.03.03-.04V2.52zm5.26 13.28c0-1.97-1.37-3.61-3.18-3.99v7.98c1.81-.38 3.18-2.02 3.18-3.99z"/></g></svg><svg viewBox="0 0 16 16" id="icon--search" xmlns="http://www.w3.org/2000/svg"><style>.rshp0{fill:#243f4d}</style><g id="rBanner"><g id="rHeader"><path id="ricon" class="rshp0" d="M3.7 6.08c.36-.07.68.13.75.48.09.58.35 1.07.78 1.49.42.39.94.68 1.49.78.33.06.55.39.49.74a.64.64 0 01-.72.51c-.81-.16-1.55-.54-2.14-1.13-.58-.58-.97-1.32-1.13-2.13-.07-.36.12-.68.48-.74zM6.98 0c3.47 0 6.28 2.8 6.28 6.25 0 .93-.2 1.81-.57 2.61l2.34 2.03c1.7 1.75.74 3.27.29 3.72-.42.45-1.99 1.41-3.73-.29l-2.06-2.35c-.78.34-1.64.54-2.55.54C3.51 12.51.7 9.71.7 6.25S3.51 0 6.98 0zm5.55 13.51c.29.33 1.12.87 1.88.23.21-.18.63-1.07-.23-1.87l-2.16-1.88c-.39.51-.84.96-1.37 1.34l1.88 2.18zM6.98 11.2c2.74 0 4.97-2.22 4.97-4.95S9.72 1.31 6.98 1.31c-2.74 0-4.97 2.21-4.97 4.94 0 2.73 2.23 4.95 4.97 4.95z"/></g></g></svg><svg viewBox="0 0 20 20" id="icon--search2" xmlns="http://www.w3.org/2000/svg"><style>.sshp0{fill:#fff}</style><g id="sProducts"><g id="sItems"><g id="sItem 2"><path id="sForma 1" class="sshp0" d="M19.45 16.8l-4.59-4.59a8.812 8.812 0 01-2.65 2.65l4.59 4.59c.73.73 1.92.73 2.65 0s.73-1.92 0-2.65zM15 7.5C15 3.36 11.64 0 7.5 0 3.36 0 0 3.36 0 7.5 0 11.64 3.36 15 7.5 15c4.14 0 7.5-3.36 7.5-7.5zm-7.5 5.62c-3.1 0-5.63-2.52-5.63-5.62S4.4 1.87 7.5 1.87s5.62 2.53 5.62 5.63-2.52 5.62-5.62 5.62zM3.12 7.5h1.25c0-1.72 1.41-3.13 3.13-3.13V3.12c-2.41 0-4.38 1.97-4.38 4.38z"/></g></g></g></svg><svg viewBox="0 0 61 64" id="icon--star" xmlns="http://www.w3.org/2000/svg"><style>.tshp0{fill:#a3bbc8}.tshp1{fill:#243f4d}</style><g id="tWidgets"><path id="tEllipse 2 copy" class="tshp0" d="M43.5 29.62c9.32 0 16.87 7.56 16.87 16.88S52.82 63.37 43.5 63.37 26.62 55.82 26.62 46.5s7.56-16.88 16.88-16.88z"/><path id="tShape 1 copy" class="tshp1" d="M32.15 8.01c-6.97-3.55-15.36-2.19-20.89 3.38-6.42 6.49-7.06 16.82-1.5 24.05.2.25.5.39.79.39a1.011 1.011 0 00.79-1.63c-4.95-6.42-4.38-15.62 1.33-21.38 4.92-4.96 12.38-6.17 18.58-3.01.49.25 1.09.05 1.34-.44.25-.5.05-1.11-.44-1.36zm7.97 8.05a.99.99 0 00-1.34-.44c-.49.25-.69.85-.44 1.35a16.28 16.28 0 01-2.98 18.75c-5.71 5.76-14.82 6.34-21.18 1.34a.992.992 0 00-1.4.18c-.34.44-.26 1.07.17 1.41 3.26 2.57 7.16 3.83 11.05 3.83 4.64 0 9.27-1.8 12.77-5.33a18.316 18.316 0 003.35-21.09zm-2.58-3.84c-.24-.28-.5-.56-.77-.83-.26-.26-.54-.53-.82-.78a.998.998 0 00-1.41.09 1 1 0 00.09 1.42c.25.23.49.46.73.7.23.24.47.49.69.74.19.22.47.34.74.34.24 0 .48-.09.67-.25.41-.37.45-1.01.08-1.43zm10.04 13.86a3.44 3.44 0 000-3.58l-1.31-2.17c-.18-.29-.24-.63-.19-.96l.39-2.51c.2-1.28-.32-2.55-1.36-3.31l-2.03-1.5c-.27-.19-.46-.48-.54-.81l-.6-2.47a3.39 3.39 0 00-2.5-2.53l-2.45-.6c-.32-.08-.61-.27-.81-.54L34.7 3.04a3.365 3.365 0 00-3.28-1.37l-2.48.39c-.33.05-.67-.01-.95-.19L25.83.55a3.326 3.326 0 00-3.54 0l-2.15 1.32c-.29.18-.62.24-.95.19l-2.49-.39c-1.27-.2-2.52.32-3.28 1.37l-1.48 2.05c-.2.28-.48.47-.8.55l-2.45.6c-1.25.3-2.21 1.27-2.51 2.53l-.59 2.47c-.08.33-.27.61-.54.81l-2.04 1.5a3.427 3.427 0 00-1.36 3.31l.39 2.51c.06.33-.01.67-.18.96L.54 22.5c-.66 1.1-.66 2.47 0 3.58l1.32 2.17c.17.29.24.63.18.96l-.39 2.51c-.2 1.28.32 2.55 1.36 3.31l2.04 1.5c.27.19.46.48.54.81l.59 2.47a3.39 3.39 0 002.5 2.53l1.03.25-6.93 15.59c-.14.33-.1.72.11 1.01.21.29.57.45.92.4l5.57-.67 3.21 4.65c.19.27.5.43.82.43h.1c.35-.04.67-.26.81-.6l7.08-15.92.89.55c.55.34 1.16.51 1.77.51.61 0 1.23-.17 1.77-.51l.93-.57 7.08 15.94c.15.34.46.56.82.6h.09c.33 0 .63-.16.82-.43l3.21-4.65 5.57.68a1 1 0 00.92-.41c.22-.29.26-.68.11-1.01l-6.93-15.6.99-.24a3.39 3.39 0 002.5-2.53l.6-2.47c.08-.33.27-.62.54-.81l2.03-1.5a3.427 3.427 0 001.36-3.31l-.39-2.51c-.05-.33.01-.67.19-.96l1.31-2.17zM13.22 60.96l-2.54-3.69a.99.99 0 00-.94-.42l-4.41.53 6.31-14.2c.11.08.21.18.3.3l1.48 2.06c.14.19.3.37.47.53l-3.32 7.48c-.22.5 0 1.1.5 1.33.14.06.27.09.41.09.38 0 .75-.23.91-.6l3.31-7.45c.33.04.66.04 1-.01l2.49-.39c.15-.03.3-.03.44 0l-6.41 14.44zm29.62-3.58l-4.42-.53a.983.983 0 00-.93.42l-2.55 3.69-6.41-14.45c.13-.02.27-.02.41.01l2.48.39c.35.06.7.05 1.04 0l3.31 7.46c.17.37.53.6.91.6.14 0 .28-.03.41-.09.5-.23.73-.83.5-1.33l-3.33-7.51c.16-.15.31-.32.44-.5l1.48-2.06c.1-.13.21-.24.34-.33l6.32 14.23zm3.04-32.35l-1.32 2.17c-.42.7-.58 1.52-.45 2.32l.39 2.51c.08.53-.13 1.06-.56 1.37l-2.04 1.5c-.65.47-1.11 1.17-1.3 1.96l-.6 2.48c-.12.52-.52.92-1.03 1.04l-2.45.6c-.79.19-1.48.66-1.95 1.32l-1.48 2.05c-.31.44-.83.65-1.36.57l-2.48-.4c-.8-.12-1.62.04-2.3.46l-2.16 1.33c-.45.28-1.01.28-1.46 0l-2.15-1.33a3.395 3.395 0 00-2.3-.46l-2.49.4c-.52.08-1.04-.13-1.35-.57l-1.49-2.05a3.357 3.357 0 00-1.95-1.32l-2.45-.6c-.51-.12-.91-.52-1.03-1.04l-.59-2.48c-.19-.79-.66-1.49-1.31-1.96l-2.03-1.5c-.43-.31-.65-.84-.57-1.37l.4-2.51c.12-.8-.04-1.62-.46-2.32l-1.31-2.17c-.28-.46-.28-1.02 0-1.48l1.31-2.17c.42-.7.58-1.52.46-2.32l-.39-2.52c-.09-.52.13-1.05.56-1.36l2.03-1.5c.65-.48 1.12-1.18 1.31-1.97l.59-2.47c.12-.52.52-.92 1.03-1.04l2.45-.6c.79-.19 1.48-.66 1.96-1.32l1.48-2.05c.31-.44.83-.65 1.35-.57l2.49.39c.79.13 1.61-.03 2.3-.46l2.15-1.32c.45-.28 1.01-.28 1.46 0l2.16 1.32c.68.43 1.5.59 2.3.46l2.48-.39c.53-.08 1.05.13 1.36.57l1.48 2.05c.47.66 1.17 1.13 1.95 1.32l2.45.6c.51.12.91.52 1.03 1.04l.6 2.47c.19.8.65 1.49 1.3 1.97l2.04 1.5c.43.31.64.84.56 1.36l-.39 2.52c-.13.8.03 1.62.45 2.32l1.32 2.17c.27.46.27 1.02 0 1.48zm-10.13-3.88c-.22-.68-.8-1.16-1.51-1.24l-6.01-.72-2.53-5.55a1.798 1.798 0 00-3.28 0l-2.53 5.55-6.01.72c-.71.08-1.28.56-1.5 1.24-.22.69-.03 1.41.49 1.9l4.44 4.15-1.18 5.99c-.14.7.13 1.41.71 1.83.32.23.69.35 1.06.35.3 0 .6-.08.88-.24l5.28-2.98 5.28 2.98c.62.36 1.37.31 1.94-.11.58-.42.85-1.13.71-1.83l-1.18-5.99 4.44-4.15c.53-.49.72-1.21.5-1.9zm-6.7 4.95c-.26.24-.37.6-.3.94l1.2 6.13-5.4-3.05a.947.947 0 00-.49-.13c-.17 0-.33.04-.49.13l-5.4 3.05 1.21-6.13c.07-.34-.05-.7-.3-.94l-4.55-4.24 6.15-.74c.34-.04.64-.26.79-.58l2.59-5.67 2.59 5.67c.15.32.45.54.79.58l6.15.74-4.54 4.24z"/></g></svg><svg viewBox="0 0 51 54" id="icon--support24" xmlns="http://www.w3.org/2000/svg"><style>.ushp0{opacity:.341}.ushp0,.ushp1{fill:#a3bbc8}</style><g id="uFeatures"><g id="uSupport 24/7."><path id="uEllipse 1" class="ushp0" d="M40.98 33.59c5.41 0 9.8 4.4 9.8 9.82s-4.39 9.81-9.8 9.81c-5.41 0-9.79-4.39-9.79-9.81 0-5.42 4.38-9.82 9.79-9.82z"/><path id="uShape 1" class="ushp1" d="M45.31 11.67a.938.938 0 00-1.29-.3c-.44.27-.57.85-.3 1.29 2.24 3.59 3.42 7.74 3.42 11.99 0 12.51-10.17 22.68-22.68 22.68-4.95 0-9.65-1.57-13.6-4.53a.93.93 0 00-1.31.19.93.93 0 00.19 1.31c4.27 3.21 9.36 4.91 14.72 4.91 13.54 0 24.56-11.02 24.56-24.56 0-4.6-1.28-9.09-3.71-12.98zM22.28 33.61h-7.55l4.74-4.75c2.42-2.41 3.75-5.62 3.75-9.03 0-3.23-2.62-5.85-5.85-5.85-3.22 0-5.84 2.62-5.84 5.85 0 .51.42.93.94.93s.94-.42.94-.93c0-2.19 1.78-3.97 3.96-3.97 2.19 0 3.97 1.78 3.97 3.97 0 2.91-1.13 5.65-3.19 7.71l-6.34 6.34c-.27.27-.35.67-.21 1.03.15.35.49.57.87.57h9.81c.52 0 .94-.42.94-.93 0-.52-.42-.94-.94-.94zm15.04-6.44h-2.6v-1.52c0-.51-.42-.93-.94-.93s-.94.42-.94.93v1.52h-5.28l5.28-8.85v4.21a.939.939 0 101.88 0v-7.61-.01c0-.31-.17-.62-.46-.8a.933.933 0 00-1.28.33L25.1 27.63a.93.93 0 00-.01.94c.17.29.48.48.82.48h6.93v5.5c0 .51.42.93.94.93s.94-.42.94-.93v-5.5h2.6a.939.939 0 100-1.88zm5.33-22.63a.94.94 0 00-.96-.92.93.93 0 00-.91.96l.04 1.75a24.45 24.45 0 00-6.35-4.11A24.351 24.351 0 0024.46.09C10.92.09-.09 11.11-.09 24.65c0 6.65 2.61 12.87 7.36 17.53.18.18.42.27.65.27.25 0 .49-.09.67-.28.37-.37.36-.96-.01-1.33-4.38-4.3-6.8-10.05-6.8-16.19 0-12.51 10.18-22.68 22.68-22.68 5.58 0 10.97 2.08 15.11 5.77l-1.84.04a.94.94 0 00-.92.96c.01.51.43.91.94.91h.02l4.06-.09a.94.94 0 00.92-.96l-.1-4.06z"/></g></g></svg><svg viewBox="0 0 448 512" id="icon--user" xmlns="http://www.w3.org/2000/svg"><path fill="currentColor" d="M313.6 304c-28.7 0-42.5 16-89.6 16-47.1 0-60.8-16-89.6-16C60.2 304 0 364.2 0 438.4V464c0 26.5 21.5 48 48 48h352c26.5 0 48-21.5 48-48v-25.6c0-74.2-60.2-134.4-134.4-134.4zM400 464H48v-25.6c0-47.6 38.8-86.4 86.4-86.4 14.6 0 38.3 16 89.6 16 51.7 0 74.9-16 89.6-16 47.6 0 86.4 38.8 86.4 86.4V464zM224 288c79.5 0 144-64.5 144-144S303.5 0 224 0 80 64.5 80 144s64.5 144 144 144zm0-240c52.9 0 96 43.1 96 96s-43.1 96-96 96-96-43.1-96-96 43.1-96 96-96z"/></svg><svg viewBox="0 0 22 25" id="icon--video" xmlns="http://www.w3.org/2000/svg"><style>.wshp0{fill:#fff}</style><g id="wvideo"><path id="wForm 24" class="wshp0" d="M20.68 14.74l-16.04 9.8c-.5.3-1.08.46-1.66.46-.48 0-.96-.11-1.4-.32C.61 24.21 0 23.29 0 22.29V2.7C0 1.7.61.78 1.58.31c.97-.46 2.15-.41 3.06.15l16.04 9.79c.83.51 1.32 1.35 1.32 2.25 0 .9-.49 1.74-1.32 2.24z"/></g></svg></svg>