<svg xmlns="http://www.w3.org/2000/svg" viewBox="0 0 23 15" width="23" height="15">
	<style>
		tspan { white-space:pre }
		.shp0 { fill: #888888 } 
	</style>
	<g id="Our Team">
		<g id="Items">
			<g id="Item 4">
				<path id="Union 6" class="shp0" d="M6.75 14.91C5.34 14.83 4.06 14.38 2.93 13.55C1.47 12.47 0.54 11.04 0.16 9.26C0.02 8.62 -0.03 7.98 0.02 7.33C0.12 5.79 0.66 4.42 1.64 3.23C2.66 1.98 3.96 1.16 5.51 0.77C5.9 0.66 6.29 0.6 6.69 0.58C6.92 0.57 7.15 0.56 7.38 0.56C8.59 0.57 9.73 0.88 10.78 1.49C11.48 1.89 11.87 2.3 12.05 2.42C11.33 3.13 10.64 3.82 9.94 4.51C9.42 4.06 8.84 3.65 7.84 3.49C7.63 3.46 7.43 3.45 7.23 3.45C5.22 3.45 3.54 4.9 3.09 6.8C2.98 7.23 2.95 7.67 2.99 8.1C3.14 9.87 4.33 11.32 5.92 11.84C6.33 11.96 6.75 12.03 7.18 12.03C7.28 12.03 7.38 12.02 7.48 12.02C8.23 11.97 8.94 11.77 9.57 11.35C10.65 10.61 11 9.47 11 9.18L7.15 9.18C7.15 9.09 7.17 7.29 7.17 6.42L7.18 6.3L13.94 6.3C14.3 8.41 13.97 10.62 12.66 12.35C11.75 13.55 10.55 14.3 9.11 14.68C8.47 14.84 7.82 14.92 7.17 14.92C7.03 14.92 6.89 14.92 6.75 14.91ZM20.08 10.86L18.26 10.86L18.19 10.86L18.19 10.79L18.21 8.36L15.78 8.36L15.7 8.36L15.7 8.28L15.72 6.46L15.72 6.39L15.79 6.39L18.22 6.39L18.24 3.96L18.24 3.89L18.31 3.89L20.13 3.89L20.2 3.89L20.2 3.96L20.18 6.39L22.62 6.39L22.69 6.39L22.69 6.46L22.68 8.28L22.68 8.36L22.6 8.36L20.17 8.36L20.15 10.79L20.15 10.86L20.08 10.86Z" />
			</g>
		</g>
	</g>
</svg>