<svg xmlns="http://www.w3.org/2000/svg" viewBox="0 0 18 18" width="18" height="18">
	<style>
		tspan { white-space:pre }
		.shp0 { fill: #888888 } 
	</style>
	<g id="Our Team">
		<g id="Items">
			<g id="Item 4">
				<path id="Union 5" fill-rule="evenodd" class="shp0" d="M3.59 17.5C1.64 17 0.47 15.72 0.16 13.75C-0.07 12.3 -0.09 5.56 0.33 4.1C0.87 2.19 2.15 1.07 4.08 0.75C4.95 0.61 6.66 0.56 8.38 0.56C9.99 0.56 11.61 0.6 12.58 0.66C13.76 0.72 14.85 1.1 15.72 1.94C16.56 2.74 16.99 3.74 17.1 4.88C17.22 6.23 17.31 12.62 16.91 14.12C16.38 16.08 15.09 17.24 13.11 17.56C12.37 17.68 10.37 17.75 8.37 17.75C6.32 17.75 4.28 17.68 3.59 17.5ZM4.51 2.24C3.01 2.42 2 3.34 1.76 4.83C1.51 6.42 1.51 12.33 1.7 13.52C1.89 14.75 2.59 15.6 3.82 15.95C4.49 16.13 6.49 16.2 8.45 16.2C10.25 16.2 12.02 16.14 12.69 16.07C14.2 15.9 15.2 14.97 15.44 13.47C15.69 11.95 15.69 6.44 15.55 5.02C15.39 3.51 14.47 2.51 12.97 2.28C12.23 2.17 10.45 2.12 8.67 2.12C6.96 2.12 5.26 2.16 4.51 2.24ZM4.19 9.16C4.21 6.72 6.2 4.74 8.64 4.75C11.07 4.75 13.03 6.73 13.01 9.16C12.99 11.6 11 13.57 8.56 13.57C6.13 13.57 4.17 11.6 4.19 9.16ZM5.74 9.13C5.72 10.7 6.97 12 8.55 12.01L8.57 12.01C10.14 12.01 11.42 10.75 11.45 9.19C11.47 7.6 10.22 6.32 8.65 6.31L8.62 6.31C7.06 6.31 5.77 7.56 5.74 9.13ZM12.19 4.58C12.19 4.01 12.65 3.55 13.22 3.55L13.23 3.55C13.8 3.55 14.26 4.01 14.25 4.59C14.25 5.15 13.78 5.61 13.21 5.61C12.64 5.61 12.18 5.15 12.19 4.58Z" />
			</g>
		</g>
	</g>
</svg>